<svg width="64" height="50" viewBox="0 0 64 50" fill="none" xmlns="http://www.w3.org/2000/svg">
<path d="M4.88143 14.6444C4.88143 18.6883 13.8068 21.9666 9.76286 21.9666C5.71895 21.9666 0 16.2476 0 12.2037C0 8.15979 5.71895 7.32227 9.76286 7.32227C13.8068 7.32227 4.88143 10.6005 4.88143 14.6444Z" fill="currentColor"/>
<path d="M12.2036 29.2885C12.2036 33.3324 7.45182 36.6106 1.59022 36.6106C-4.27138 36.6106 7.95795 34.7968 7.95795 30.7529C7.95795 26.709 -4.27138 21.9663 1.59022 21.9663C7.45182 21.9663 12.2036 25.2445 12.2036 29.2885Z" fill="currentColor"/>
<path d="M13.0447 35.8563L26.8123 10.2105L36.7239 18.9284L13.0447 35.8563Z" fill="currentColor"/>
<path d="M57.9342 44.9707L36.5375 10.6591L26.6338 19.3702L57.9342 44.9707Z" fill="currentColor"/>
</svg>
